<?xml version="1.0" standalone="no"?><svg xmlns:xlink="http://www.w3.org/1999/xlink" xmlns="http://www.w3.org/2000/svg" viewBox="0 0 1000 562.5015555905852" preserveAspectRatio="xMaxYMax slice"><g transform="scale(0.8296483120805092)"><rect x="0" y="0" width="1205.3333333333333" height="678" fill="#ffffff"/><rect x="252.11555555555555" y="101.44888888888889" width="23.10222222222221" height="23.10222222222221" fill="#ffffff"/><rect x="402.7822222222222" y="101.44888888888889" width="23.10222222222221" height="23.10222222222221" fill="#ffffff"/><rect x="172.76444444444445" y="172.76444444444445" width="31.13777777777777" height="31.13777777777777" fill="#ffffff"/><rect x="248.09777777777776" y="172.76444444444445" width="31.13777777777777" height="31.13777777777777" fill="#ffffff"/><rect x="248.1" y="172.76" width="15.57" height="15.57" fill="#578ebe"/><rect x="248.1" y="172.76" width="15.57" height="15.57" fill="#f6cdb8"/><rect x="624.7644444444444" y="172.76444444444445" width="31.13777777777777" height="31.13777777777777" fill="#ffffff"/><rect x="624.76" y="188.33" width="15.57" height="15.57" fill="#efa986"/><rect x="624.76" y="188.33" width="15.57" height="15.57" fill="#6c9cc6"/><rect x="850.7644444444444" y="172.76444444444445" width="31.13777777777777" height="31.13777777777777" fill="#ffffff"/><rect x="850.76" y="172.76" width="15.57" height="15.57" fill="#b9d0e4"/><rect x="850.76" y="172.76" width="15.57" height="15.57" fill="#1561a4"/><rect x="926.0977777777778" y="172.76444444444445" width="31.13777777777777" height="31.13777777777777" fill="#ffffff"/><rect x="941.67" y="172.76" width="15.57" height="15.57" fill="#f2bca0"/><rect x="941.67" y="172.76" width="15.57" height="15.57" fill="#6396c2"/><rect x="941.67" y="188.33" width="15.57" height="15.57" fill="#f7d6c6"/><rect x="941.67" y="188.33" width="15.57" height="15.57" fill="#fffcfb"/><rect x="1001.431111111111" y="172.76444444444445" width="31.13777777777777" height="31.13777777777777" fill="#ffffff"/><rect x="1001.43" y="172.76" width="15.57" height="15.57" fill="#105ea2"/><rect x="1001.43" y="172.76" width="15.57" height="15.57" fill="#ebf2f7"/><rect x="1017" y="172.76" width="15.57" height="15.57" fill="#f9ded0"/><rect x="1017" y="172.76" width="15.57" height="15.57" fill="#8cb1d2"/><rect x="1076.7644444444443" y="172.76444444444445" width="31.13777777777777" height="31.13777777777777" fill="#ffffff"/><rect x="1092.33" y="188.33" width="15.57" height="15.57" fill="#f8d8c8"/><rect x="1092.33" y="188.33" width="15.57" height="15.57" fill="#f3c1a8"/><rect x="319.4133333333333" y="244.08" width="39.173333333333325" height="39.173333333333325" fill="#ffffff"/><rect x="319.41" y="263.67" width="19.59" height="19.59" fill="#f0ac8b"/><rect x="319.41" y="263.67" width="19.59" height="19.59" fill="#91b5d4"/><rect x="394.7466666666666" y="244.08" width="39.173333333333325" height="39.173333333333325" fill="#ffffff"/><rect x="394.75" y="244.08" width="19.59" height="19.59" fill="#76a3ca"/><rect x="394.75" y="244.08" width="19.59" height="19.59" fill="#f4c4ac"/><rect x="414.33" y="244.08" width="19.59" height="19.59" fill="#226aa9"/><rect x="414.33" y="244.08" width="19.59" height="19.59" fill="#548bbc"/><rect x="414.33" y="263.67" width="19.59" height="19.59" fill="#eef4f9"/><rect x="414.33" y="263.67" width="19.59" height="19.59" fill="#fef7f4"/><rect x="922.08" y="244.08" width="39.173333333333325" height="39.173333333333325" fill="#ffffff"/><rect x="922.08" y="244.08" width="19.59" height="19.59" fill="#4a85b9"/><rect x="922.08" y="244.08" width="19.59" height="19.59" fill="#eea783"/><rect x="941.67" y="244.08" width="19.59" height="19.59" fill="#fdf2ed"/><rect x="941.67" y="244.08" width="19.59" height="19.59" fill="#7da7cc"/><rect x="922.08" y="263.67" width="19.59" height="19.59" fill="#c1d5e7"/><rect x="922.08" y="263.67" width="19.59" height="19.59" fill="#f7f9fc"/><rect x="997.4133333333333" y="244.08" width="39.173333333333325" height="39.173333333333325" fill="#ffffff"/><rect x="1148.08" y="244.08" width="39.173333333333325" height="39.173333333333325" fill="#ffffff"/><rect x="1148.08" y="263.67" width="19.59" height="19.59" fill="#f5ccb7"/><rect x="1148.08" y="263.67" width="19.59" height="19.59" fill="#4582b7"/><rect x="14.062222222222221" y="315.3955555555555" width="47.208888888888886" height="47.208888888888886" fill="#ffffff"/><rect x="14.06" y="315.4" width="23.6" height="23.6" fill="#f5cab4"/><rect x="14.06" y="315.4" width="23.6" height="23.6" fill="#5b90bf"/><rect x="37.67" y="315.4" width="23.6" height="23.6" fill="#aac6de"/><rect x="37.67" y="315.4" width="23.6" height="23.6" fill="#f4c3aa"/><rect x="466.0622222222222" y="315.3955555555555" width="47.208888888888886" height="47.208888888888886" fill="#ffffff"/><rect x="466.06" y="339" width="23.6" height="23.6" fill="#a6c3dc"/><rect x="466.06" y="339" width="23.6" height="23.6" fill="#f9ddcf"/><rect x="616.7288888888888" y="315.3955555555555" width="47.208888888888886" height="47.208888888888886" fill="#ffffff"/><rect x="616.73" y="315.4" width="23.6" height="23.6" fill="#7ba6cc"/><rect x="616.73" y="315.4" width="23.6" height="23.6" fill="#f9e0d3"/><rect x="640.33" y="315.4" width="23.6" height="23.6" fill="#286eac"/><rect x="640.33" y="315.4" width="23.6" height="23.6" fill="#efab89"/><rect x="616.73" y="339" width="23.6" height="23.6" fill="#f3c1a8"/><rect x="616.73" y="339" width="23.6" height="23.6" fill="#6698c4"/><rect x="640.33" y="339" width="23.6" height="23.6" fill="#f2ba9e"/><rect x="640.33" y="339" width="23.6" height="23.6" fill="#fcede6"/><rect x="692.0622222222222" y="315.3955555555555" width="47.208888888888886" height="47.208888888888886" fill="#ffffff"/><rect x="715.67" y="315.4" width="23.6" height="23.6" fill="#417fb5"/><rect x="715.67" y="315.4" width="23.6" height="23.6" fill="#5089bb"/><rect x="692.06" y="339" width="23.6" height="23.6" fill="#f8dacc"/><rect x="692.06" y="339" width="23.6" height="23.6" fill="#cadbea"/><rect x="715.67" y="339" width="23.6" height="23.6" fill="#fffefd"/><rect x="715.67" y="339" width="23.6" height="23.6" fill="#b7cfe3"/><rect x="767.3955555555555" y="315.3955555555555" width="47.208888888888886" height="47.208888888888886" fill="#ffffff"/><rect x="767.4" y="315.4" width="23.6" height="23.6" fill="#fefcfa"/><rect x="767.4" y="315.4" width="23.6" height="23.6" fill="#6799c4"/><rect x="791" y="315.4" width="23.6" height="23.6" fill="#f0b090"/><rect x="791" y="315.4" width="23.6" height="23.6" fill="#e7eff6"/><rect x="767.4" y="339" width="23.6" height="23.6" fill="#6194c1"/><rect x="767.4" y="339" width="23.6" height="23.6" fill="#4d87ba"/><rect x="993.3955555555555" y="315.3955555555555" width="47.208888888888886" height="47.208888888888886" fill="#ffffff"/><rect x="993.4" y="315.4" width="23.6" height="23.6" fill="#4c86ba"/><rect x="993.4" y="315.4" width="23.6" height="23.6" fill="#f4c4ac"/><rect x="1017" y="339" width="23.6" height="23.6" fill="#1b66a7"/><rect x="1017" y="339" width="23.6" height="23.6" fill="#5c91c0"/><rect x="1068.7288888888888" y="315.3955555555555" width="47.208888888888886" height="47.208888888888886" fill="#ffffff"/><rect x="1068.73" y="339" width="23.6" height="23.6" fill="#1e68a8"/><rect x="1068.73" y="339" width="23.6" height="23.6" fill="#fae7dd"/><rect x="10.044444444444446" y="386.71111111111105" width="55.24444444444444" height="55.24444444444444" fill="#ffffff"/><rect x="37.67" y="414.33" width="27.62" height="27.62" fill="#fbeae1"/><rect x="37.67" y="414.33" width="27.62" height="27.62" fill="#acc7df"/><rect x="85.37777777777778" y="386.71111111111105" width="55.24444444444444" height="55.24444444444444" fill="#ffffff"/><rect x="113" y="386.71" width="27.62" height="27.62" fill="#ffffff"/><rect x="113" y="386.71" width="27.62" height="27.62" fill="#f8dacb"/><rect x="160.7111111111111" y="386.71111111111105" width="55.24444444444444" height="55.24444444444444" fill="#ffffff"/><rect x="160.71" y="386.71" width="27.62" height="27.62" fill="#f9ddcf"/><rect x="160.71" y="386.71" width="27.62" height="27.62" fill="#c1d5e7"/><rect x="188.33" y="414.33" width="27.62" height="27.62" fill="#f9e1d4"/><rect x="188.33" y="414.33" width="27.62" height="27.62" fill="#efab89"/><rect x="236.04444444444445" y="386.71111111111105" width="55.24444444444444" height="55.24444444444444" fill="#ffffff"/><rect x="236.04" y="386.71" width="27.62" height="27.62" fill="#eea682"/><rect x="236.04" y="386.71" width="27.62" height="27.62" fill="#fdf3ee"/><rect x="236.04" y="414.33" width="27.62" height="27.62" fill="#fae7dd"/><rect x="236.04" y="414.33" width="27.62" height="27.62" fill="#f1b496"/><rect x="386.71111111111105" y="386.71111111111105" width="55.24444444444444" height="55.24444444444444" fill="#ffffff"/><rect x="386.71" y="386.71" width="27.62" height="27.62" fill="#fef9f6"/><rect x="386.71" y="386.71" width="27.62" height="27.62" fill="#f9ded0"/><rect x="414.33" y="386.71" width="27.62" height="27.62" fill="#afc9e0"/><rect x="414.33" y="386.71" width="27.62" height="27.62" fill="#fffffe"/><rect x="386.71" y="414.33" width="27.62" height="27.62" fill="#236aaa"/><rect x="386.71" y="414.33" width="27.62" height="27.62" fill="#03559d"/><rect x="414.33" y="414.33" width="27.62" height="27.62" fill="#f9ded0"/><rect x="414.33" y="414.33" width="27.62" height="27.62" fill="#f5c7b0"/><rect x="537.3777777777777" y="386.71111111111105" width="55.24444444444444" height="55.24444444444444" fill="#ffffff"/><rect x="537.38" y="414.33" width="27.62" height="27.62" fill="#f0b090"/><rect x="537.38" y="414.33" width="27.62" height="27.62" fill="#88aed1"/><rect x="565" y="414.33" width="27.62" height="27.62" fill="#b8cfe3"/><rect x="565" y="414.33" width="27.62" height="27.62" fill="#4783b8"/><rect x="612.7111111111111" y="386.71111111111105" width="55.24444444444444" height="55.24444444444444" fill="#ffffff"/><rect x="612.71" y="386.71" width="27.62" height="27.62" fill="#3879b2"/><rect x="612.71" y="386.71" width="27.62" height="27.62" fill="#fcf1ec"/><rect x="612.71" y="414.33" width="27.62" height="27.62" fill="#f5c9b3"/><rect x="612.71" y="414.33" width="27.62" height="27.62" fill="#fdf5f1"/><rect x="640.33" y="414.33" width="27.62" height="27.62" fill="#fae7dd"/><rect x="640.33" y="414.33" width="27.62" height="27.62" fill="#efaa88"/><rect x="838.7111111111111" y="386.71111111111105" width="55.24444444444444" height="55.24444444444444" fill="#ffffff"/><rect x="838.71" y="386.71" width="27.62" height="27.62" fill="#2d72ae"/><rect x="838.71" y="386.71" width="27.62" height="27.62" fill="#f1b496"/><rect x="866.33" y="386.71" width="27.62" height="27.62" fill="#9dbdd9"/><rect x="866.33" y="386.71" width="27.62" height="27.62" fill="#f0af8f"/><rect x="838.71" y="414.33" width="27.62" height="27.62" fill="#a0bfda"/><rect x="838.71" y="414.33" width="27.62" height="27.62" fill="#276dab"/><rect x="866.33" y="414.33" width="27.62" height="27.62" fill="#4b85b9"/><rect x="866.33" y="414.33" width="27.62" height="27.62" fill="#699ac5"/><rect x="989.3777777777777" y="386.71111111111105" width="55.24444444444444" height="55.24444444444444" fill="#ffffff"/><rect x="989.38" y="386.71" width="27.62" height="27.62" fill="#fdf2ed"/><rect x="989.38" y="386.71" width="27.62" height="27.62" fill="#2d72ae"/><rect x="1017" y="386.71" width="27.62" height="27.62" fill="#dae6f1"/><rect x="1017" y="386.71" width="27.62" height="27.62" fill="#76a3ca"/><rect x="989.38" y="414.33" width="27.62" height="27.62" fill="#5c91c0"/><rect x="989.38" y="414.33" width="27.62" height="27.62" fill="#fbfdfe"/><rect x="1017" y="414.33" width="27.62" height="27.62" fill="#d2e1ee"/><rect x="1017" y="414.33" width="27.62" height="27.62" fill="#d7e4ef"/><rect x="1140.0444444444445" y="386.71111111111105" width="55.24444444444444" height="55.24444444444444" fill="#ffffff"/><rect x="1140.04" y="414.33" width="27.62" height="27.62" fill="#f9ded1"/><rect x="1140.04" y="414.33" width="27.62" height="27.62" fill="#fae3d7"/><rect x="6.026666666666668" y="458.02666666666664" width="63.279999999999994" height="63.279999999999994" fill="#ffffff"/><rect x="6.03" y="458.03" width="31.64" height="31.64" fill="#f8d9ca"/><rect x="6.03" y="458.03" width="31.64" height="31.64" fill="#f1f5f9"/><rect x="37.67" y="458.03" width="31.64" height="31.64" fill="#5e92c1"/><rect x="37.67" y="458.03" width="31.64" height="31.64" fill="#05579e"/><rect x="6.03" y="489.67" width="31.64" height="31.64" fill="#f5ccb7"/><rect x="6.03" y="489.67" width="31.64" height="31.64" fill="#4783b7"/><rect x="37.67" y="489.67" width="31.64" height="31.64" fill="#93b6d5"/><rect x="37.67" y="489.67" width="31.64" height="31.64" fill="#f6ceb9"/><rect x="81.36" y="458.02666666666664" width="63.279999999999994" height="63.279999999999994" fill="#ffffff"/><rect x="81.36" y="458.03" width="31.64" height="31.64" fill="#a7c3dd"/><rect x="81.36" y="458.03" width="31.64" height="31.64" fill="#3778b1"/><rect x="113" y="458.03" width="31.64" height="31.64" fill="#7ca7cc"/><rect x="113" y="458.03" width="31.64" height="31.64" fill="#f5c8b1"/><rect x="81.36" y="489.67" width="31.64" height="31.64" fill="#296fac"/><rect x="81.36" y="489.67" width="31.64" height="31.64" fill="#a8c4dd"/><rect x="113" y="489.67" width="31.64" height="31.64" fill="#f0b090"/><rect x="113" y="489.67" width="31.64" height="31.64" fill="#699ac5"/><rect x="232.02666666666667" y="458.02666666666664" width="63.279999999999994" height="63.279999999999994" fill="#ffffff"/><rect x="232.03" y="458.03" width="31.64" height="31.64" fill="#568dbd"/><rect x="232.03" y="458.03" width="31.64" height="31.64" fill="#fbe8de"/><rect x="263.67" y="458.03" width="31.64" height="31.64" fill="#73a0c9"/><rect x="263.67" y="458.03" width="31.64" height="31.64" fill="#f4c6af"/><rect x="232.03" y="489.67" width="31.64" height="31.64" fill="#5a90bf"/><rect x="232.03" y="489.67" width="31.64" height="31.64" fill="#8db2d3"/><rect x="263.67" y="489.67" width="31.64" height="31.64" fill="#fcf1eb"/><rect x="263.67" y="489.67" width="31.64" height="31.64" fill="#558cbd"/><rect x="307.35999999999996" y="458.02666666666664" width="63.279999999999994" height="63.279999999999994" fill="#ffffff"/><rect x="307.36" y="458.03" width="31.64" height="31.64" fill="#fffffe"/><rect x="307.36" y="458.03" width="31.64" height="31.64" fill="#fef8f6"/><rect x="339" y="458.03" width="31.64" height="31.64" fill="#1561a4"/><rect x="339" y="458.03" width="31.64" height="31.64" fill="#fbeae1"/><rect x="307.36" y="489.67" width="31.64" height="31.64" fill="#f6d0bd"/><rect x="307.36" y="489.67" width="31.64" height="31.64" fill="#e2ebf4"/><rect x="339" y="489.67" width="31.64" height="31.64" fill="#f2bca0"/><rect x="339" y="489.67" width="31.64" height="31.64" fill="#f2ba9d"/><rect x="533.3599999999999" y="458.02666666666664" width="63.279999999999994" height="63.279999999999994" fill="#ffffff"/><rect x="533.36" y="458.03" width="31.64" height="31.64" fill="#f0ac8b"/><rect x="533.36" y="458.03" width="31.64" height="31.64" fill="#efab89"/><rect x="565" y="458.03" width="31.64" height="31.64" fill="#fcf0ea"/><rect x="565" y="458.03" width="31.64" height="31.64" fill="#f1b292"/><rect x="533.36" y="489.67" width="31.64" height="31.64" fill="#85accf"/><rect x="533.36" y="489.67" width="31.64" height="31.64" fill="#97b9d6"/><rect x="565" y="489.67" width="31.64" height="31.64" fill="#f1b597"/><rect x="565" y="489.67" width="31.64" height="31.64" fill="#fefbfa"/><rect x="684.0266666666666" y="458.02666666666664" width="63.279999999999994" height="63.279999999999994" fill="#ffffff"/><rect x="684.03" y="458.03" width="31.64" height="31.64" fill="#f8fafc"/><rect x="684.03" y="458.03" width="31.64" height="31.64" fill="#6195c2"/><rect x="715.67" y="458.03" width="31.64" height="31.64" fill="#99bad7"/><rect x="715.67" y="458.03" width="31.64" height="31.64" fill="#a1c0db"/><rect x="684.03" y="489.67" width="31.64" height="31.64" fill="#a4c2dc"/><rect x="684.03" y="489.67" width="31.64" height="31.64" fill="#f6d1be"/><rect x="715.67" y="489.67" width="31.64" height="31.64" fill="#0f5da2"/><rect x="715.67" y="489.67" width="31.64" height="31.64" fill="#fefbf9"/><rect x="910.0266666666666" y="458.02666666666664" width="63.279999999999994" height="63.279999999999994" fill="#ffffff"/><rect x="910.03" y="458.03" width="31.64" height="31.64" fill="#d1e0ed"/><rect x="910.03" y="458.03" width="31.64" height="31.64" fill="#fae3d8"/><rect x="941.67" y="458.03" width="31.64" height="31.64" fill="#f5ccb7"/><rect x="941.67" y="458.03" width="31.64" height="31.64" fill="#6396c3"/><rect x="941.67" y="489.67" width="31.64" height="31.64" fill="#efab88"/><rect x="941.67" y="489.67" width="31.64" height="31.64" fill="#efa986"/><rect x="985.3599999999999" y="458.02666666666664" width="63.279999999999994" height="63.279999999999994" fill="#ffffff"/><rect x="985.36" y="458.03" width="31.64" height="31.64" fill="#bed3e6"/><rect x="985.36" y="458.03" width="31.64" height="31.64" fill="#f6cfbc"/><rect x="985.36" y="489.67" width="31.64" height="31.64" fill="#f7d3c1"/><rect x="985.36" y="489.67" width="31.64" height="31.64" fill="#b7cfe3"/><rect x="1060.6933333333332" y="458.02666666666664" width="63.279999999999994" height="63.279999999999994" fill="#ffffff"/><rect x="1060.69" y="458.03" width="31.64" height="31.64" fill="#f7d3c1"/><rect x="1060.69" y="458.03" width="31.64" height="31.64" fill="#f1b292"/><rect x="1092.33" y="458.03" width="31.64" height="31.64" fill="#f4c2aa"/><rect x="1092.33" y="458.03" width="31.64" height="31.64" fill="#a7c4dd"/><rect x="1060.69" y="489.67" width="31.64" height="31.64" fill="#fdf4f0"/><rect x="1060.69" y="489.67" width="31.64" height="31.64" fill="#a1c0db"/><rect x="1092.33" y="489.67" width="31.64" height="31.64" fill="#4682b7"/><rect x="1092.33" y="489.67" width="31.64" height="31.64" fill="#fef8f5"/><rect x="1136.0266666666666" y="458.02666666666664" width="63.279999999999994" height="63.279999999999994" fill="#ffffff"/><rect x="1167.67" y="458.03" width="31.64" height="31.64" fill="#f4c4ac"/><rect x="1167.67" y="458.03" width="31.64" height="31.64" fill="#f0ad8c"/><rect x="1167.67" y="489.67" width="31.64" height="31.64" fill="#f3c1a7"/><rect x="1167.67" y="489.67" width="31.64" height="31.64" fill="#eea581"/><rect x="2.0088888888888903" y="529.3422222222222" width="71.31555555555555" height="71.31555555555555" fill="#ffffff"/><rect x="2.01" y="529.34" width="35.66" height="35.66" fill="#f0ac8a"/><rect x="2.01" y="529.34" width="35.66" height="35.66" fill="#fafcfd"/><rect x="2.01" y="565" width="35.66" height="35.66" fill="#c3d6e8"/><rect x="2.01" y="565" width="35.66" height="35.66" fill="#5089bb"/><rect x="37.67" y="565" width="35.66" height="35.66" fill="#f4c3ab"/><rect x="37.67" y="565" width="35.66" height="35.66" fill="#4481b6"/><rect x="77.34222222222222" y="529.3422222222222" width="71.31555555555555" height="71.31555555555555" fill="#ffffff"/><rect x="113" y="529.34" width="35.66" height="35.66" fill="#6194c2"/><rect x="113" y="529.34" width="35.66" height="35.66" fill="#afc9e0"/><rect x="77.34" y="565" width="35.66" height="35.66" fill="#4e87ba"/><rect x="77.34" y="565" width="35.66" height="35.66" fill="#fef9f7"/><rect x="113" y="565" width="35.66" height="35.66" fill="#1461a4"/><rect x="113" y="565" width="35.66" height="35.66" fill="#fefbf9"/><rect x="152.67555555555555" y="529.3422222222222" width="71.31555555555555" height="71.31555555555555" fill="#ffffff"/><rect x="152.68" y="529.34" width="35.66" height="35.66" fill="#f5c7b0"/><rect x="152.68" y="529.34" width="35.66" height="35.66" fill="#86add0"/><rect x="188.33" y="529.34" width="35.66" height="35.66" fill="#2b70ad"/><rect x="188.33" y="529.34" width="35.66" height="35.66" fill="#efa884"/><rect x="152.68" y="565" width="35.66" height="35.66" fill="#fcede6"/><rect x="152.68" y="565" width="35.66" height="35.66" fill="#e0eaf3"/><rect x="188.33" y="565" width="35.66" height="35.66" fill="#1c66a7"/><rect x="188.33" y="565" width="35.66" height="35.66" fill="#f5c7b1"/><rect x="228.0088888888889" y="529.3422222222222" width="71.31555555555555" height="71.31555555555555" fill="#ffffff"/><rect x="228.01" y="529.34" width="35.66" height="35.66" fill="#4581b7"/><rect x="228.01" y="529.34" width="35.66" height="35.66" fill="#f7d5c4"/><rect x="263.67" y="529.34" width="35.66" height="35.66" fill="#dde8f2"/><rect x="263.67" y="529.34" width="35.66" height="35.66" fill="#fef7f4"/><rect x="228.01" y="565" width="35.66" height="35.66" fill="#85add0"/><rect x="228.01" y="565" width="35.66" height="35.66" fill="#f3bfa5"/><rect x="263.67" y="565" width="35.66" height="35.66" fill="#f5cbb5"/><rect x="263.67" y="565" width="35.66" height="35.66" fill="#efaa88"/><rect x="378.67555555555555" y="529.3422222222222" width="71.31555555555555" height="71.31555555555555" fill="#ffffff"/><rect x="378.68" y="529.34" width="35.66" height="35.66" fill="#bed3e6"/><rect x="378.68" y="529.34" width="35.66" height="35.66" fill="#fbe8de"/><rect x="414.33" y="529.34" width="35.66" height="35.66" fill="#6b9bc5"/><rect x="414.33" y="529.34" width="35.66" height="35.66" fill="#f2bba0"/><rect x="414.33" y="565" width="35.66" height="35.66" fill="#538bbc"/><rect x="414.33" y="565" width="35.66" height="35.66" fill="#fbfdfe"/><rect x="454.0088888888889" y="529.3422222222222" width="71.31555555555555" height="71.31555555555555" fill="#ffffff"/><rect x="454.01" y="529.34" width="35.66" height="35.66" fill="#fae6dc"/><rect x="454.01" y="529.34" width="35.66" height="35.66" fill="#e7eff6"/><rect x="489.67" y="529.34" width="35.66" height="35.66" fill="#417fb5"/><rect x="489.67" y="529.34" width="35.66" height="35.66" fill="#4481b6"/><rect x="489.67" y="565" width="35.66" height="35.66" fill="#e5edf5"/><rect x="489.67" y="565" width="35.66" height="35.66" fill="#fcf1eb"/><rect x="529.3422222222222" y="529.3422222222222" width="71.31555555555555" height="71.31555555555555" fill="#ffffff"/><rect x="529.34" y="529.34" width="35.66" height="35.66" fill="#6194c2"/><rect x="529.34" y="529.34" width="35.66" height="35.66" fill="#c2d6e7"/><rect x="565" y="529.34" width="35.66" height="35.66" fill="#7da8cd"/><rect x="565" y="529.34" width="35.66" height="35.66" fill="#f4c3ab"/><rect x="529.34" y="565" width="35.66" height="35.66" fill="#93b6d5"/><rect x="529.34" y="565" width="35.66" height="35.66" fill="#f7fafc"/><rect x="565" y="565" width="35.66" height="35.66" fill="#f3bea4"/><rect x="565" y="565" width="35.66" height="35.66" fill="#1863a5"/><rect x="604.6755555555555" y="529.3422222222222" width="71.31555555555555" height="71.31555555555555" fill="#ffffff"/><rect x="604.68" y="529.34" width="35.66" height="35.66" fill="#f7d2c0"/><rect x="604.68" y="529.34" width="35.66" height="35.66" fill="#256cab"/><rect x="640.33" y="529.34" width="35.66" height="35.66" fill="#f2bba0"/><rect x="640.33" y="529.34" width="35.66" height="35.66" fill="#f2b99d"/><rect x="604.68" y="565" width="35.66" height="35.66" fill="#e7eff6"/><rect x="604.68" y="565" width="35.66" height="35.66" fill="#fefaf9"/><rect x="640.33" y="565" width="35.66" height="35.66" fill="#6396c2"/><rect x="640.33" y="565" width="35.66" height="35.66" fill="#4883b8"/><rect x="680.0088888888889" y="529.3422222222222" width="71.31555555555555" height="71.31555555555555" fill="#ffffff"/><rect x="680.01" y="529.34" width="35.66" height="35.66" fill="#bad0e4"/><rect x="680.01" y="529.34" width="35.66" height="35.66" fill="#efa885"/><rect x="715.67" y="529.34" width="35.66" height="35.66" fill="#74a1c9"/><rect x="715.67" y="529.34" width="35.66" height="35.66" fill="#fcf0eb"/><rect x="680.01" y="565" width="35.66" height="35.66" fill="#f9ddcf"/><rect x="680.01" y="565" width="35.66" height="35.66" fill="#0c5ba1"/><rect x="715.67" y="565" width="35.66" height="35.66" fill="#3a7ab3"/><rect x="715.67" y="565" width="35.66" height="35.66" fill="#fcf0e9"/><rect x="830.6755555555555" y="529.3422222222222" width="71.31555555555555" height="71.31555555555555" fill="#ffffff"/><rect x="830.68" y="529.34" width="35.66" height="35.66" fill="#f9dfd2"/><rect x="830.68" y="529.34" width="35.66" height="35.66" fill="#f9e1d4"/><rect x="866.33" y="529.34" width="35.66" height="35.66" fill="#1b65a6"/><rect x="866.33" y="529.34" width="35.66" height="35.66" fill="#f1b293"/><rect x="830.68" y="565" width="35.66" height="35.66" fill="#fdf6f3"/><rect x="830.68" y="565" width="35.66" height="35.66" fill="#fffdfd"/><rect x="866.33" y="565" width="35.66" height="35.66" fill="#b3cce2"/><rect x="866.33" y="565" width="35.66" height="35.66" fill="#fdf6f2"/><rect x="906.0088888888889" y="529.3422222222222" width="71.31555555555555" height="71.31555555555555" fill="#ffffff"/><rect x="906.01" y="529.34" width="35.66" height="35.66" fill="#a4c2dc"/><rect x="906.01" y="529.34" width="35.66" height="35.66" fill="#f3f7fa"/><rect x="906.01" y="565" width="35.66" height="35.66" fill="#f2b99c"/><rect x="906.01" y="565" width="35.66" height="35.66" fill="#1360a3"/><rect x="981.3422222222222" y="529.3422222222222" width="71.31555555555555" height="71.31555555555555" fill="#ffffff"/><rect x="981.34" y="529.34" width="35.66" height="35.66" fill="#115ea3"/><rect x="981.34" y="529.34" width="35.66" height="35.66" fill="#c5d8e9"/><rect x="1017" y="529.34" width="35.66" height="35.66" fill="#9fbeda"/><rect x="1017" y="529.34" width="35.66" height="35.66" fill="#dfe9f2"/><rect x="981.34" y="565" width="35.66" height="35.66" fill="#226aa9"/><rect x="981.34" y="565" width="35.66" height="35.66" fill="#4e87ba"/><rect x="1017" y="565" width="35.66" height="35.66" fill="#f0ad8c"/><rect x="1017" y="565" width="35.66" height="35.66" fill="#98bad7"/><rect x="1056.6755555555553" y="529.3422222222222" width="71.31555555555555" height="71.31555555555555" fill="#ffffff"/><rect x="1056.68" y="529.34" width="35.66" height="35.66" fill="#6e9dc7"/><rect x="1056.68" y="529.34" width="35.66" height="35.66" fill="#f2bca1"/><rect x="1092.33" y="529.34" width="35.66" height="35.66" fill="#f8dacb"/><rect x="1092.33" y="529.34" width="35.66" height="35.66" fill="#f1b597"/><rect x="1056.68" y="565" width="35.66" height="35.66" fill="#fefcfb"/><rect x="1056.68" y="565" width="35.66" height="35.66" fill="#edf3f8"/><rect x="1092.33" y="565" width="35.66" height="35.66" fill="#f6d1bf"/><rect x="1092.33" y="565" width="35.66" height="35.66" fill="#f4c2a9"/><rect x="1132.0088888888888" y="529.3422222222222" width="71.31555555555555" height="71.31555555555555" fill="#ffffff"/><rect x="1132.01" y="529.34" width="35.66" height="35.66" fill="#f9e1d4"/><rect x="1132.01" y="529.34" width="35.66" height="35.66" fill="#bbd1e5"/><rect x="1167.67" y="529.34" width="35.66" height="35.66" fill="#538bbc"/><rect x="1167.67" y="529.34" width="35.66" height="35.66" fill="#b0cae0"/><rect x="1132.01" y="565" width="35.66" height="35.66" fill="#fef8f5"/><rect x="1132.01" y="565" width="35.66" height="35.66" fill="#f5cab5"/><rect x="1167.67" y="565" width="35.66" height="35.66" fill="#7ca7cc"/><rect x="1167.67" y="565" width="35.66" height="35.66" fill="#f6ccb8"/><rect x="0" y="602.6666666666666" width="75.33333333333333" height="75.33333333333333" fill="#ffffff"/><rect x="0" y="602.67" width="37.67" height="37.67" fill="#fefaf8"/><rect x="0" y="602.67" width="37.67" height="37.67" fill="#e2ebf4"/><rect x="37.67" y="602.67" width="37.67" height="37.67" fill="#fdf4ef"/><rect x="37.67" y="602.67" width="37.67" height="37.67" fill="#f8dbcc"/><rect x="0" y="640.33" width="37.67" height="37.67" fill="#ffffff"/><rect x="0" y="640.33" width="37.67" height="37.67" fill="#f3bea3"/><rect x="37.67" y="640.33" width="37.67" height="37.67" fill="#f0ad8b"/><rect x="37.67" y="640.33" width="37.67" height="37.67" fill="#a1c0db"/><rect x="75.33333333333333" y="602.6666666666666" width="75.33333333333333" height="75.33333333333333" fill="#ffffff"/><rect x="75.33" y="602.67" width="37.67" height="37.67" fill="#266cab"/><rect x="75.33" y="602.67" width="37.67" height="37.67" fill="#fefaf8"/><rect x="113" y="602.67" width="37.67" height="37.67" fill="#f0af8e"/><rect x="113" y="602.67" width="37.67" height="37.67" fill="#f0ae8d"/><rect x="75.33" y="640.33" width="37.67" height="37.67" fill="#226aa9"/><rect x="75.33" y="640.33" width="37.67" height="37.67" fill="#f0ad8c"/><rect x="113" y="640.33" width="37.67" height="37.67" fill="#f1b597"/><rect x="113" y="640.33" width="37.67" height="37.67" fill="#b2cbe1"/><rect x="150.66666666666666" y="602.6666666666666" width="75.33333333333333" height="75.33333333333333" fill="#ffffff"/><rect x="150.67" y="602.67" width="37.67" height="37.67" fill="#0f5da2"/><rect x="150.67" y="602.67" width="37.67" height="37.67" fill="#f2ba9e"/><rect x="188.33" y="602.67" width="37.67" height="37.67" fill="#b3cce2"/><rect x="188.33" y="602.67" width="37.67" height="37.67" fill="#fae3d7"/><rect x="150.67" y="640.33" width="37.67" height="37.67" fill="#d5e3ef"/><rect x="150.67" y="640.33" width="37.67" height="37.67" fill="#efa885"/><rect x="188.33" y="640.33" width="37.67" height="37.67" fill="#f9ded0"/><rect x="188.33" y="640.33" width="37.67" height="37.67" fill="#fbe9e0"/><rect x="226" y="602.6666666666666" width="75.33333333333333" height="75.33333333333333" fill="#ffffff"/><rect x="226" y="602.67" width="37.67" height="37.67" fill="#f3bfa5"/><rect x="226" y="602.67" width="37.67" height="37.67" fill="#3979b2"/><rect x="263.67" y="602.67" width="37.67" height="37.67" fill="#76a3ca"/><rect x="263.67" y="602.67" width="37.67" height="37.67" fill="#4984b8"/><rect x="226" y="640.33" width="37.67" height="37.67" fill="#f5cbb6"/><rect x="226" y="640.33" width="37.67" height="37.67" fill="#f5cbb6"/><rect x="263.67" y="640.33" width="37.67" height="37.67" fill="#f7d6c5"/><rect x="263.67" y="640.33" width="37.67" height="37.67" fill="#dae6f0"/><rect x="301.3333333333333" y="602.6666666666666" width="75.33333333333333" height="75.33333333333333" fill="#ffffff"/><rect x="301.33" y="602.67" width="37.67" height="37.67" fill="#f3c1a7"/><rect x="301.33" y="602.67" width="37.67" height="37.67" fill="#f5ccb7"/><rect x="339" y="602.67" width="37.67" height="37.67" fill="#aac5de"/><rect x="339" y="602.67" width="37.67" height="37.67" fill="#bbd1e5"/><rect x="301.33" y="640.33" width="37.67" height="37.67" fill="#f9ded1"/><rect x="301.33" y="640.33" width="37.67" height="37.67" fill="#f7d4c3"/><rect x="339" y="640.33" width="37.67" height="37.67" fill="#4b85b9"/><rect x="339" y="640.33" width="37.67" height="37.67" fill="#1561a4"/><rect x="376.66666666666663" y="602.6666666666666" width="75.33333333333333" height="75.33333333333333" fill="#ffffff"/><rect x="376.67" y="602.67" width="37.67" height="37.67" fill="#f7d6c5"/><rect x="376.67" y="602.67" width="37.67" height="37.67" fill="#4d87ba"/><rect x="414.33" y="602.67" width="37.67" height="37.67" fill="#f5ccb7"/><rect x="414.33" y="602.67" width="37.67" height="37.67" fill="#b4cde2"/><rect x="376.67" y="640.33" width="37.67" height="37.67" fill="#fbe9e1"/><rect x="376.67" y="640.33" width="37.67" height="37.67" fill="#216aa9"/><rect x="414.33" y="640.33" width="37.67" height="37.67" fill="#fdf4ef"/><rect x="414.33" y="640.33" width="37.67" height="37.67" fill="#f2bba0"/><rect x="452" y="602.6666666666666" width="75.33333333333333" height="75.33333333333333" fill="#ffffff"/><rect x="452" y="602.67" width="37.67" height="37.67" fill="#eea580"/><rect x="452" y="602.67" width="37.67" height="37.67" fill="#1d67a7"/><rect x="489.67" y="602.67" width="37.67" height="37.67" fill="#286eab"/><rect x="489.67" y="602.67" width="37.67" height="37.67" fill="#4c86ba"/><rect x="452" y="640.33" width="37.67" height="37.67" fill="#f6cdb8"/><rect x="452" y="640.33" width="37.67" height="37.67" fill="#a8c4dd"/><rect x="489.67" y="640.33" width="37.67" height="37.67" fill="#abc6de"/><rect x="489.67" y="640.33" width="37.67" height="37.67" fill="#efa986"/><rect x="527.3333333333333" y="602.6666666666666" width="75.33333333333333" height="75.33333333333333" fill="#ffffff"/><rect x="527.33" y="602.67" width="37.67" height="37.67" fill="#f9e1d5"/><rect x="527.33" y="602.67" width="37.67" height="37.67" fill="#588fbe"/><rect x="565" y="602.67" width="37.67" height="37.67" fill="#3778b1"/><rect x="565" y="602.67" width="37.67" height="37.67" fill="#5a90bf"/><rect x="527.33" y="640.33" width="37.67" height="37.67" fill="#04569e"/><rect x="527.33" y="640.33" width="37.67" height="37.67" fill="#2169a9"/><rect x="565" y="640.33" width="37.67" height="37.67" fill="#3476b0"/><rect x="565" y="640.33" width="37.67" height="37.67" fill="#fcf1eb"/><rect x="602.6666666666666" y="602.6666666666666" width="75.33333333333333" height="75.33333333333333" fill="#ffffff"/><rect x="602.67" y="602.67" width="37.67" height="37.67" fill="#1863a5"/><rect x="602.67" y="602.67" width="37.67" height="37.67" fill="#f5ccb7"/><rect x="640.33" y="602.67" width="37.67" height="37.67" fill="#f3c0a6"/><rect x="640.33" y="602.67" width="37.67" height="37.67" fill="#a5c2dc"/><rect x="602.67" y="640.33" width="37.67" height="37.67" fill="#eea581"/><rect x="602.67" y="640.33" width="37.67" height="37.67" fill="#f5c8b1"/><rect x="640.33" y="640.33" width="37.67" height="37.67" fill="#cddeec"/><rect x="640.33" y="640.33" width="37.67" height="37.67" fill="#dae6f1"/><rect x="678" y="602.6666666666666" width="75.33333333333333" height="75.33333333333333" fill="#ffffff"/><rect x="678" y="602.67" width="37.67" height="37.67" fill="#1a64a6"/><rect x="678" y="602.67" width="37.67" height="37.67" fill="#fefaf7"/><rect x="715.67" y="602.67" width="37.67" height="37.67" fill="#f1b699"/><rect x="715.67" y="602.67" width="37.67" height="37.67" fill="#f2b89a"/><rect x="678" y="640.33" width="37.67" height="37.67" fill="#eea682"/><rect x="678" y="640.33" width="37.67" height="37.67" fill="#f3bea3"/><rect x="715.67" y="640.33" width="37.67" height="37.67" fill="#cadbea"/><rect x="715.67" y="640.33" width="37.67" height="37.67" fill="#0c5ba1"/><rect x="753.3333333333333" y="602.6666666666666" width="75.33333333333333" height="75.33333333333333" fill="#ffffff"/><rect x="753.33" y="602.67" width="37.67" height="37.67" fill="#3879b2"/><rect x="753.33" y="602.67" width="37.67" height="37.67" fill="#6194c2"/><rect x="791" y="602.67" width="37.67" height="37.67" fill="#f2b799"/><rect x="791" y="602.67" width="37.67" height="37.67" fill="#f0af8f"/><rect x="753.33" y="640.33" width="37.67" height="37.67" fill="#fae4d9"/><rect x="753.33" y="640.33" width="37.67" height="37.67" fill="#fceee7"/><rect x="791" y="640.33" width="37.67" height="37.67" fill="#b5cde2"/><rect x="791" y="640.33" width="37.67" height="37.67" fill="#74a1c9"/><rect x="828.6666666666666" y="602.6666666666666" width="75.33333333333333" height="75.33333333333333" fill="#ffffff"/><rect x="828.67" y="602.67" width="37.67" height="37.67" fill="#f6f9fb"/><rect x="828.67" y="602.67" width="37.67" height="37.67" fill="#efac8a"/><rect x="866.33" y="602.67" width="37.67" height="37.67" fill="#4e88ba"/><rect x="866.33" y="602.67" width="37.67" height="37.67" fill="#eef3f8"/><rect x="828.67" y="640.33" width="37.67" height="37.67" fill="#86add0"/><rect x="828.67" y="640.33" width="37.67" height="37.67" fill="#b4cce2"/><rect x="866.33" y="640.33" width="37.67" height="37.67" fill="#f9e1d5"/><rect x="866.33" y="640.33" width="37.67" height="37.67" fill="#6a9ac5"/><rect x="904" y="602.6666666666666" width="75.33333333333333" height="75.33333333333333" fill="#ffffff"/><rect x="904" y="602.67" width="37.67" height="37.67" fill="#f7d2c0"/><rect x="904" y="602.67" width="37.67" height="37.67" fill="#f2b99d"/><rect x="941.67" y="602.67" width="37.67" height="37.67" fill="#3577b1"/><rect x="941.67" y="602.67" width="37.67" height="37.67" fill="#eea580"/><rect x="904" y="640.33" width="37.67" height="37.67" fill="#f0b191"/><rect x="904" y="640.33" width="37.67" height="37.67" fill="#5f93c1"/><rect x="941.67" y="640.33" width="37.67" height="37.67" fill="#eea47f"/><rect x="941.67" y="640.33" width="37.67" height="37.67" fill="#fcfdfe"/><rect x="979.3333333333333" y="602.6666666666666" width="75.33333333333333" height="75.33333333333333" fill="#ffffff"/><rect x="979.33" y="602.67" width="37.67" height="37.67" fill="#d4e2ee"/><rect x="979.33" y="602.67" width="37.67" height="37.67" fill="#9cbcd8"/><rect x="1017" y="602.67" width="37.67" height="37.67" fill="#80a9ce"/><rect x="1017" y="602.67" width="37.67" height="37.67" fill="#3a7ab3"/><rect x="979.33" y="640.33" width="37.67" height="37.67" fill="#f7d5c4"/><rect x="979.33" y="640.33" width="37.67" height="37.67" fill="#fae5db"/><rect x="1017" y="640.33" width="37.67" height="37.67" fill="#fef9f7"/><rect x="1017" y="640.33" width="37.67" height="37.67" fill="#eea682"/><rect x="1054.6666666666665" y="602.6666666666666" width="75.33333333333333" height="75.33333333333333" fill="#ffffff"/><rect x="1054.67" y="602.67" width="37.67" height="37.67" fill="#f9e1d5"/><rect x="1054.67" y="602.67" width="37.67" height="37.67" fill="#3a7ab2"/><rect x="1092.33" y="602.67" width="37.67" height="37.67" fill="#fef8f5"/><rect x="1092.33" y="602.67" width="37.67" height="37.67" fill="#fae5da"/><rect x="1054.67" y="640.33" width="37.67" height="37.67" fill="#a1c0db"/><rect x="1054.67" y="640.33" width="37.67" height="37.67" fill="#f6cfbc"/><rect x="1092.33" y="640.33" width="37.67" height="37.67" fill="#5c91c0"/><rect x="1092.33" y="640.33" width="37.67" height="37.67" fill="#4e87ba"/><rect x="1130" y="602.6666666666666" width="75.33333333333333" height="75.33333333333333" fill="#ffffff"/><rect x="1130" y="602.67" width="37.67" height="37.67" fill="#256caa"/><rect x="1130" y="602.67" width="37.67" height="37.67" fill="#fbe9e0"/><rect x="1167.67" y="602.67" width="37.67" height="37.67" fill="#6c9cc6"/><rect x="1167.67" y="602.67" width="37.67" height="37.67" fill="#fdf7f3"/><rect x="1130" y="640.33" width="37.67" height="37.67" fill="#f0af8f"/><rect x="1130" y="640.33" width="37.67" height="37.67" fill="#296fac"/><rect x="1167.67" y="640.33" width="37.67" height="37.67" fill="#85add0"/><rect x="1167.67" y="640.33" width="37.67" height="37.67" fill="#f9e1d5"/></g></svg>